<?xml version="1.0" encoding="utf-8"?>
<!-- Generator: Adobe Illustrator 21.1.0, SVG Export Plug-In . SVG Version: 6.00 Build 0)  -->
<svg version="1.1" id="Layer_1" xmlns="http://www.w3.org/2000/svg" xmlns:xlink="http://www.w3.org/1999/xlink" x="0px" y="0px"
	 viewBox="0 0 534 150" style="enable-background:new 0 0 534 150;" xml:space="preserve">
<style type="text/css">
	.st0{fill:url(#SVGID_1_);}
	.st1{fill:url(#SVGID_2_);}
	.st2{clip-path:url(#SVGID_4_);}
	.st3{fill:#FFFFFF;}
</style>
<g>
	<linearGradient id="SVGID_1_" gradientUnits="userSpaceOnUse" x1="-4.6607" y1="103.9189" x2="128.1282" y2="36.2596">
		<stop  offset="0" style="stop-color:#4982C3"/>
		<stop  offset="0.15" style="stop-color:#4982C3"/>
		<stop  offset="0.1658" style="stop-color:#547DC0"/>
		<stop  offset="0.2484" style="stop-color:#8862B0"/>
		<stop  offset="0.3259" style="stop-color:#B04DA3"/>
		<stop  offset="0.396" style="stop-color:#CE3E9A"/>
		<stop  offset="0.4564" style="stop-color:#E03595"/>
		<stop  offset="0.5" style="stop-color:#E63293"/>
		<stop  offset="0.6" style="stop-color:#E63293"/>
	</linearGradient>
	<path class="st0" d="M94.9,100.6H84.8c-2,0-2.9,0.9-2.9,2.8v0.9c-0.6,17.1-14.1,29.5-32,29.5c-18.4,0-31.8-13-31.8-30.9
		c0-8.1,3.2-15.7,9.1-21.5c6-5.9,14.1-9.1,22.7-9.1h0.8c1.9,0,2.8-0.9,2.8-3V59.1c0-2-0.9-2.9-2.8-2.9h-1.3
		c-11.4,0-19.6-8.4-19.6-20c0-11.6,9.1-20.1,21.7-20.1c7.6,0,14.4,3.2,18.6,8.7c0.1,0.2,0.6,0.8,0.6,0.8c0.6,1,1.3,1.5,2.1,1.5
		c0.6,0,1.2-0.2,1.9-0.7l8.8-5.5c0.9-0.5,1.4-1.1,1.5-1.8c0.2-0.6,0-1.4-0.5-2.2l-0.2-0.3C77.3,6.3,65.1,0,51.6,0
		c-21.3,0-38,15.9-38,36.3c0,10.2,3.9,19.5,11,26.2l0.6,0.5l-0.7,0.4C10.4,72.1,2,86.8,2,102.9c0,12.9,4.8,24.8,13.4,33.4
		c8.8,8.8,21.1,13.7,34.6,13.7c12.1,0,23.5-4.1,32.1-11.5c7.3-6.3,15.7-16,15.9-34.9l0-0.3C97.9,101.4,97,100.6,94.9,100.6z"/>
	<linearGradient id="SVGID_2_" gradientUnits="userSpaceOnUse" x1="11.2949" y1="104.312" x2="118.6834" y2="49.5948">
		<stop  offset="0" style="stop-color:#4982C3"/>
		<stop  offset="0.15" style="stop-color:#4982C3"/>
		<stop  offset="0.1658" style="stop-color:#547DC0"/>
		<stop  offset="0.2484" style="stop-color:#8862B0"/>
		<stop  offset="0.3259" style="stop-color:#B04DA3"/>
		<stop  offset="0.396" style="stop-color:#CE3E9A"/>
		<stop  offset="0.4564" style="stop-color:#E03595"/>
		<stop  offset="0.5" style="stop-color:#E63293"/>
		<stop  offset="0.6" style="stop-color:#E63293"/>
	</linearGradient>
	<path class="st1" d="M114.3,56.2l-16.4,0V39.9c0-1.9-0.9-2.8-2.9-2.8H84.8c-2,0-3,0.9-3,2.8l0,16.4H65.5c-1.9,0-2.8,0.9-2.8,3v10.2
		c0,2,0.9,2.9,2.8,2.9l16.4,0v16.4c0,1.9,0.9,2.8,3,2.8H95c2,0,2.9-0.9,2.9-2.8V72.3h16.4c1.9,0,2.8-0.9,2.8-2.9V59.2
		C117,57.2,116.2,56.2,114.3,56.2z"/>
</g>
<g>
	<defs>
		<path id="SVGID_3_" d="M235.2,53.1c-0.7,0-1.2,0.3-1.4,0.8L217,94.3l-16.8-40.5c-0.2-0.5-0.7-0.8-1.4-0.8h-3.3
			c-0.6,0-1,0.2-1.3,0.4c-0.3,0.3-0.2,0.9,0.2,1.9l19.7,47.1c0.2,0.5,0.5,0.9,0.8,1.1c0.3,0.2,0.8,0.4,1.4,0.4h1.5
			c0.6,0,1-0.1,1.3-0.4c0.3-0.2,0.6-0.6,0.8-1.1l19.7-47.1c0.4-1,0.4-1.6,0.2-1.9c-0.3-0.3-0.7-0.4-1.3-0.4H235.2z M385.4,53.1
			c-1.3,0-2.2,0.5-2.8,1.5l-16.6,40.9l-17-40.7c-0.3-0.5-0.6-0.9-0.8-1.2c-0.3-0.3-0.7-0.5-1.4-0.5h-2.2c-0.8,0-1.4,0.2-1.7,0.6
			c-0.3,0.4-0.3,1.1,0.1,2l19.5,46.8l-8.1,19.3c-0.3,0.8-0.3,1.4,0.1,1.9c0.3,0.5,0.9,0.7,1.6,0.7h1.7c1.3,0,2.2-0.5,2.7-1.5
			l28.1-67.2c0.3-0.8,0.3-1.4-0.1-1.8c-0.3-0.4-0.9-0.7-1.6-0.7H385.4z M319.6,53.1c-1.4,0.4-2.7,1-3.9,1.7
			c-1.2,0.7-2.2,1.6-3.1,2.7c-0.9,1.1-1.6,2.2-2,3.4v-3.3v-2.1c0-1.6-0.8-2.4-2.5-2.4h-1.1c-1.5,0-2.3,0.8-2.3,2.4v46v0.5
			c0,1.2,0.7,1.9,2,1.9h1.7h0.5c1.3,0,1.9-0.6,1.9-1.9l0-28c0-2,0.3-4,1-5.8c0.7-1.9,1.6-3.6,2.7-5c1.2-1.5,2.5-2.6,4.1-3.5
			c1.6-0.9,3.4-1.3,5.3-1.3c1.3,0,2.7,0.3,4,0.8c1.3,0.5,2.5,1.1,3.5,1.7c0.2,0.1,0.4,0.2,0.5,0.2c0.2,0,0.4,0,0.7,0
			c0.2,0,0.5-0.1,0.8-0.4c0.3-0.3,0.6-0.6,0.9-1c0.3-0.4,0.5-0.8,0.7-1.3c0.2-0.4,0.3-0.8,0.3-1.2c0-0.6-0.4-1.2-1.1-1.7
			c-0.8-0.6-1.7-1.1-2.8-1.5c-1.1-0.4-2.3-0.8-3.6-1.1c-1.3-0.3-2.4-0.4-3.5-0.4C322.5,52.4,321,52.7,319.6,53.1 M150.1,68.6
			c1.1-2.1,2.4-4,4-5.5c1.6-1.6,3.4-2.8,5.4-3.7c2-0.9,4.2-1.3,6.4-1.3c2.2,0,4.3,0.5,6.4,1.3c2,0.9,3.9,2.1,5.5,3.7
			c1.6,1.6,3,3.4,4,5.6c1.1,2.1,1.8,4.4,2.1,6.8h-36.1C148.2,73,149,70.8,150.1,68.6 M156.5,54.3c-3,1.4-5.5,3.3-7.8,5.7
			c-2.2,2.4-4,5.2-5.3,8.4c-1.3,3.2-1.9,6.7-1.9,10.3c0,3.6,0.6,7,1.9,10.2c1.3,3.2,3.1,5.9,5.3,8.3c2.2,2.4,4.9,4.3,7.9,5.7
			c3,1.4,6.3,2.2,9.7,2.2h0.1c3.6,0,6.9-0.7,10-2c3.1-1.3,5.8-3.1,8.2-5.4c0.9-0.6,1.3-1.2,1.3-1.7c0-0.6-0.3-1.2-0.7-1.8l-0.8-1.1
			c-0.4-0.5-0.8-0.8-1.4-0.8c-0.5,0-1,0.2-1.5,0.7c-1.9,1.9-4.1,3.5-6.7,4.6c-2.6,1.1-5.3,1.7-8.3,1.7h-0.2c-2.5-0.1-4.8-0.6-7-1.5
			c-2.2-1-4.2-2.3-5.9-3.9c-1.7-1.7-3.1-3.6-4.1-5.8c-1.1-2.2-1.7-4.6-1.8-7.2h38.1c1.2,0,2.1-0.2,2.9-0.6c0.8-0.4,1.2-1.2,1.2-2.5
			c0-3.5-0.6-6.8-1.9-9.9c-1.3-3.1-3-5.8-5.1-8.1c-2.2-2.3-4.7-4.1-7.6-5.5c-2.9-1.3-5.9-2-9.1-2C162.7,52.2,159.5,52.9,156.5,54.3
			 M253,68.6c1.1-2.1,2.4-4,4-5.5c1.6-1.6,3.4-2.8,5.4-3.7c2-0.9,4.2-1.3,6.4-1.3c2.2,0,4.3,0.5,6.4,1.3c2.1,0.9,3.9,2.1,5.5,3.7
			c1.6,1.6,2.9,3.4,4,5.6c1.1,2.1,1.8,4.4,2.1,6.8h-36.1C251.2,73,251.9,70.8,253,68.6 M259.5,54.3c-3,1.4-5.5,3.3-7.8,5.7
			c-2.2,2.4-4,5.2-5.3,8.4c-1.3,3.2-1.9,6.7-1.9,10.3c0,3.6,0.7,7,1.9,10.2c1.3,3.2,3.1,5.9,5.3,8.3c2.2,2.4,4.9,4.3,7.9,5.7
			c3,1.4,6.3,2.2,9.7,2.2h0.1c3.6,0,6.9-0.7,10-2c3.1-1.3,5.8-3.1,8.2-5.4c0.9-0.6,1.3-1.2,1.3-1.7c0-0.6-0.3-1.2-0.7-1.8l-0.8-1.1
			c-0.4-0.5-0.8-0.8-1.4-0.8c-0.5,0-1,0.2-1.5,0.7c-1.9,1.9-4.1,3.5-6.7,4.6c-2.6,1.1-5.3,1.7-8.3,1.7h-0.2c-2.5-0.1-4.8-0.6-7-1.5
			c-2.2-1-4.2-2.3-5.9-3.9c-1.7-1.7-3.1-3.6-4.1-5.8c-1.1-2.2-1.6-4.6-1.8-7.2h38.1c1.2,0,2.2-0.2,2.9-0.6c0.8-0.4,1.2-1.2,1.2-2.5
			c0-3.5-0.6-6.8-1.9-9.9c-1.3-3.1-3-5.8-5.2-8.1c-2.2-2.3-4.7-4.1-7.6-5.5c-2.9-1.3-5.9-2-9.1-2C265.6,52.2,262.4,52.9,259.5,54.3
			 M462.7,68.6c1.1-2.1,2.4-4,4-5.5c1.6-1.6,3.4-2.8,5.4-3.7c2-0.9,4.1-1.3,6.4-1.3c2.2,0,4.3,0.5,6.4,1.3c2.1,0.9,3.9,2.1,5.5,3.7
			c1.6,1.6,3,3.4,4,5.6c1.1,2.1,1.8,4.4,2.1,6.8h-36.1C460.9,73,461.7,70.8,462.7,68.6 M469.2,54.3c-3,1.4-5.5,3.3-7.8,5.7
			c-2.2,2.4-4,5.2-5.3,8.4c-1.3,3.2-1.9,6.7-1.9,10.3c0,3.6,0.7,7,1.9,10.2c1.3,3.2,3.1,5.9,5.3,8.3c2.2,2.4,4.9,4.3,7.9,5.7
			c3,1.4,6.3,2.2,9.7,2.2h0.1c3.6,0,6.9-0.7,10-2c3.1-1.3,5.8-3.1,8.2-5.4c0.9-0.6,1.3-1.2,1.3-1.7c0-0.6-0.3-1.2-0.8-1.8l-0.8-1.1
			c-0.4-0.5-0.8-0.8-1.4-0.8c-0.5,0-1,0.2-1.5,0.7c-1.9,1.9-4.1,3.5-6.7,4.6c-2.6,1.1-5.3,1.7-8.3,1.7h-0.2c-2.5-0.1-4.8-0.6-7-1.5
			c-2.2-1-4.2-2.3-5.9-3.9c-1.7-1.7-3.1-3.6-4.1-5.8c-1.1-2.2-1.6-4.6-1.8-7.2h38.1c1.2,0,2.1-0.2,2.9-0.6c0.8-0.4,1.2-1.2,1.2-2.5
			c0-3.5-0.6-6.8-1.9-9.9c-1.3-3.1-3-5.8-5.2-8.1c-2.2-2.3-4.7-4.1-7.6-5.5c-2.9-1.3-5.9-2-9.1-2C475.3,52.2,472.2,52.9,469.2,54.3
			 M416.6,52.8c-1.6,0.5-3.1,1.1-4.5,1.9c-1.4,0.8-2.7,1.8-3.9,2.9c-1.2,1.1-2.2,2.3-3,3.6l-0.2-7c0-0.3-0.2-0.6-0.4-0.8
			c-0.2-0.2-0.5-0.3-0.8-0.3h-3.1c-0.5,0-0.9,0.1-1.2,0.5c-0.3,0.3-0.4,0.7-0.4,1.2v47.5c0,1.2,0.7,1.9,2,1.9h2.1
			c1.3,0,1.9-0.6,1.9-1.9V73c0.1-2.1,0.6-4.1,1.5-5.9c0.9-1.8,2-3.4,3.5-4.7c1.5-1.3,3.1-2.4,5-3.1c1.9-0.8,3.9-1.1,5.9-1.1
			c2.1,0,4.1,0.4,6,1.2c1.9,0.8,3.5,1.9,4.9,3.3c1.4,1.4,2.5,3,3.3,4.9c0.8,1.9,1.3,3.9,1.3,6V102c0,0.7,0.1,1.2,0.4,1.5
			c0.3,0.3,0.8,0.5,1.5,0.5h2.1c0.6,0,1.1-0.2,1.5-0.5c0.4-0.3,0.5-0.9,0.5-1.6V73.5c0-3-0.5-5.8-1.6-8.4c-1.1-2.6-2.5-4.9-4.4-6.8
			c-1.9-1.9-4.1-3.5-6.6-4.6c-2.5-1.1-5.3-1.7-8.3-1.7C419.9,52.1,418.2,52.4,416.6,52.8 M517.7,36.1c-1.1,0.2-1.7,0.8-1.7,1.8v15.3
			h-7.1c-0.7,0-1.2,0.1-1.5,0.4c-0.3,0.3-0.5,0.8-0.5,1.4V57c0,0.7,0.2,1.2,0.5,1.5c0.3,0.3,0.8,0.4,1.5,0.4h7.1v31.8
			c0,2.8,0.3,5.1,1,6.9c0.6,1.8,1.5,3.2,2.6,4.2c1.1,1,2.4,1.8,3.9,2.1c1.5,0.4,3.2,0.6,4.9,0.6h1.5c0.7,0,1.3-0.1,1.7-0.4
			c0.5-0.3,0.7-0.8,0.7-1.6v-1.7c0-0.7-0.2-1.2-0.7-1.5c-0.4-0.3-0.9-0.5-1.5-0.5h-1.9c-1.1-0.1-2.1-0.3-2.8-0.7
			c-0.8-0.3-1.4-0.8-1.9-1.5c-0.5-0.7-0.9-1.6-1.1-2.8c-0.2-1.2-0.4-2.7-0.4-4.5V58.8h9c0.6,0,1.1-0.2,1.5-0.5
			c0.4-0.3,0.5-0.8,0.5-1.5v-1.7c0-0.7-0.2-1.2-0.5-1.5c-0.4-0.3-0.9-0.5-1.5-0.5h-9V37.9c0-0.6-0.1-1.1-0.4-1.6
			c-0.2-0.4-0.7-0.6-1.4-0.6L517.7,36.1z"/>
	</defs>
	<use xlink:href="#SVGID_3_"  style="overflow:visible;fill:#FFFFFF;"/>
	<clipPath id="SVGID_4_">
		<use xlink:href="#SVGID_3_"  style="overflow:visible;"/>
	</clipPath>
	<g class="st2">

			<rect x="142.8" y="-48.2" transform="matrix(0.8913 -0.4535 0.4535 0.8913 0.3945 161.6452)" class="st3" width="389" height="256.4"/>
	</g>
</g>
</svg>
